<?xml version="1.0" standalone="no"?>
<!DOCTYPE svg PUBLIC "-//W3C//DTD SVG 20010904//EN"
 "http://www.w3.org/TR/2001/REC-SVG-20010904/DTD/svg10.dtd">
<svg version="1.0" xmlns="http://www.w3.org/2000/svg"
 width="683.000000pt" height="318.000000pt" viewBox="0 0 683.000000 318.000000"
 preserveAspectRatio="xMidYMid meet">

<g transform="translate(0.000000,318.000000) scale(0.100000,-0.100000)"
fill="#000000" stroke="none">
<path d="M833 1893 c-7 -2 -13 -11 -13 -19 0 -9 5 -12 11 -9 7 5 9 -3 7 -21
-2 -18 -8 -28 -16 -26 -8 1 -11 -2 -7 -7 3 -6 12 -8 20 -4 10 3 15 20 15 49 0
24 -1 44 -2 43 -2 0 -9 -3 -15 -6z"/>
<path d="M890 1874 c0 -14 3 -14 15 -4 9 7 18 10 22 6 3 -3 1 -6 -5 -6 -7 0
-12 -5 -12 -11 0 -5 4 -8 9 -4 5 3 12 1 16 -5 3 -5 12 -10 18 -10 8 0 8 3 -1
9 -8 5 19 7 65 6 43 -1 83 2 89 7 19 14 40 -20 26 -42 -10 -16 -8 -18 13 -14
19 3 23 1 19 -11 -3 -8 -9 -13 -13 -11 -3 2 -5 -156 -3 -352 2 -237 6 -352 13
-345 6 6 9 127 7 335 -2 180 0 324 3 322 4 -2 12 3 19 11 7 8 9 15 4 15 -5 0
-2 4 6 10 8 5 11 12 7 16 -3 4 -14 1 -24 -7 -15 -12 -16 -12 -11 2 4 9 1 22
-5 28 -8 8 -8 11 0 11 7 0 15 -5 18 -11 4 -6 13 -8 21 -5 16 6 19 -17 4 -44
-8 -14 -6 -21 5 -27 12 -7 15 -59 18 -343 l3 -335 -1 343 c0 218 4 344 10 347
6 3 -1 2 -14 -1 l-24 -6 23 33 c13 18 18 29 11 25 -10 -7 -11 -4 -2 13 10 18
9 21 -9 21 -11 0 -20 5 -20 10 0 15 -40 12 -40 -2 0 -7 -8 -1 -18 15 l-17 27
-122 0 c-107 0 -123 -2 -123 -16z"/>
<path d="M1183 1883 c9 -2 23 -2 30 0 6 3 -1 5 -18 5 -16 0 -22 -2 -12 -5z"/>
<path d="M1245 1873 c-3 -9 -1 -21 4 -26 5 -5 7 -15 5 -22 -3 -7 0 -16 7 -21
8 -4 10 -3 5 4 -4 7 -1 12 7 12 10 0 13 7 10 18 -4 17 3 18 81 17 77 -1 84 0
73 14 -11 14 -10 14 6 2 9 -7 17 -9 17 -3 0 11 25 11 36 0 8 -8 34 2 34 13 0
4 -63 8 -139 8 -118 0 -140 -3 -146 -16z"/>
<path d="M1540 1857 c0 -18 -6 -39 -12 -46 -11 -10 -10 -11 5 -6 12 5 17 18
17 46 0 21 -2 39 -5 39 -3 0 -5 -15 -5 -33z"/>
<path d="M1562 1860 c0 -19 2 -27 5 -17 2 9 2 25 0 35 -3 9 -5 1 -5 -18z"/>
<path d="M1480 1860 c0 -7 -3 -11 -6 -7 -9 9 -34 -19 -34 -38 0 -12 8 -16 33
-13 23 2 32 8 32 21 0 10 7 22 15 28 13 9 13 10 -1 6 -9 -3 -22 0 -28 6 -8 8
-11 7 -11 -3z"/>
<path d="M874 1826 c-9 -20 -8 -23 8 -18 20 5 22 11 10 29 -5 8 -11 4 -18 -11z"/>
<path d="M920 1812 c0 -11 39 -12 45 -1 4 5 -5 9 -19 9 -14 0 -26 -4 -26 -8z"/>
<path d="M1560 1809 c0 -5 5 -7 10 -4 6 3 10 8 10 11 0 2 -4 4 -10 4 -5 0 -10
-5 -10 -11z"/>
<path d="M1182 1375 c3 -320 5 -370 18 -370 8 0 16 9 18 19 3 14 0 17 -12 13
-21 -8 -21 16 -1 33 18 15 19 30 3 30 -10 0 -12 68 -10 312 2 206 -1 315 -8
322 -7 7 -9 -103 -8 -359z"/>
<path d="M1214 1420 c0 -173 2 -244 3 -157 2 86 2 228 0 315 -1 86 -3 15 -3
-158z"/>
<path d="M1148 1033 c-3 -20 0 -30 9 -30 15 0 17 25 4 46 -6 9 -10 5 -13 -16z"/>
<path d="M1231 1024 c0 -11 3 -14 6 -6 3 7 2 16 -1 19 -3 4 -6 -2 -5 -13z"/>
</g>
</svg>
